<svg xmlns="http://www.w3.org/2000/svg" width="256" height="256" viewBox="0 0 100 100"><rect width="100" height="100" rx="20" fill="#c41e3a"></rect><path d="M9.55 34.72L26.15 34.72Q26.30 34.97 26.45 35.40Q26.60 35.83 26.60 36.33L26.60 36.33Q26.60 37.17 26.20 37.67Q25.80 38.17 25.05 38.17L25.05 38.17L11.45 38.17L11.45 48.58L24.40 48.58Q24.55 48.83 24.70 49.25Q24.85 49.67 24.85 50.17L24.85 50.17Q24.85 51.02 24.45 51.52Q24.05 52.02 23.30 52.02L23.30 52.02L11.45 52.02L11.45 65.08Q11.20 65.17 10.68 65.28Q10.15 65.38 9.60 65.38L9.60 65.38Q7.35 65.38 7.35 63.58L7.35 63.58L7.35 36.92Q7.35 35.92 7.95 35.33Q8.55 34.72 9.55 34.72L9.55 34.72ZM50.50 57.23L50.50 57.23Q50.15 57.48 49.58 57.67Q49 57.88 48.30 57.88L48.30 57.88Q47.50 57.88 46.88 57.63Q46.25 57.38 46 56.83L46 56.83Q43.30 51.23 41.35 46.58Q39.40 41.92 38.20 38.88L38.20 38.88L38 38.88Q37.85 42.63 37.68 45.85Q37.50 49.08 37.30 52.15Q37.10 55.23 36.90 58.38Q36.70 61.52 36.50 65.13L36.50 65.13Q36.20 65.22 35.73 65.33Q35.25 65.42 34.70 65.42L34.70 65.42Q33.60 65.42 33.15 64.97Q32.70 64.53 32.70 63.67L32.70 63.67Q32.70 63.17 32.78 61.52Q32.85 59.88 33 57.52Q33.15 55.17 33.33 52.33Q33.50 49.48 33.73 46.52Q33.95 43.58 34.18 40.72Q34.40 37.88 34.60 35.52L34.60 35.52Q35 35.17 35.75 34.88Q36.50 34.58 37.45 34.58L37.45 34.58Q39.75 34.58 40.65 36.42L40.65 36.42Q41.60 38.38 42.58 40.55Q43.55 42.72 44.53 44.97Q45.50 47.22 46.43 49.42Q47.35 51.63 48.20 53.63L48.20 53.63L48.40 53.63Q49.50 50.98 50.60 48.40Q51.70 45.83 52.75 43.42Q53.80 41.02 54.75 38.92Q55.70 36.83 56.45 35.08L56.45 35.08Q56.90 34.83 57.60 34.70Q58.30 34.58 58.90 34.58L58.90 34.58Q61.25 34.58 61.60 36.17L61.60 36.17Q61.80 37.08 62.05 39.15Q62.30 41.22 62.55 43.92Q62.80 46.63 63.03 49.73Q63.25 52.83 63.45 55.70Q63.65 58.58 63.80 61Q63.95 63.42 64.05 64.83L64.05 64.83Q63.15 65.42 61.95 65.42L61.95 65.42Q61.20 65.42 60.63 65.05Q60.05 64.67 59.95 63.67L59.95 63.67Q59.70 60.02 59.50 56.42Q59.30 52.83 59.13 49.58Q58.95 46.33 58.80 43.60Q58.65 40.88 58.55 38.97L58.55 38.97L58.35 38.97Q57.80 40.38 57.08 42.13Q56.35 43.88 55.38 46.08Q54.40 48.27 53.20 51.05Q52 53.83 50.50 57.23ZM91.10 38.17L82.85 38.17L82.85 65.03Q82.60 65.13 82.08 65.25Q81.55 65.38 81 65.38L81 65.38Q78.80 65.38 78.80 63.52L78.80 63.52L78.80 38.17L69.45 38.17Q69.30 37.92 69.15 37.50Q69 37.08 69 36.52L69 36.52Q69 35.67 69.40 35.20Q69.80 34.72 70.55 34.72L70.55 34.72L92.20 34.72Q92.35 34.97 92.50 35.40Q92.65 35.83 92.65 36.33L92.65 36.33Q92.65 37.17 92.25 37.67Q91.85 38.17 91.10 38.17L91.10 38.17Z" fill="#fff"></path></svg>